<svg xmlns="http://www.w3.org/2000/svg" xmlns:xlink="http://www.w3.org/1999/xlink" viewBox="0 0 595.94 666.34"><defs><style>.cls-1{fill:none;}.cls-2{isolation:isolate;}.cls-3{clip-path:url(#clip-path);}.cls-4{fill:#00a79d;}.cls-4,.cls-5,.cls-6{opacity:0.2;mix-blend-mode:multiply;}.cls-5{fill:#7fbcc3;}.cls-6{fill:#9fddf9;}</style><clipPath id="clip-path"><path class="cls-1" d="M282,284.3s2.35,6.07-4.53,18.44-24.76,20.54-24.76,20.54,6,3.8,7.85,3.88-.17,8-2.76,16.1-3.48,11.4-2.26,13.5-9.55,9.46-20.88,17-19.65,14.8-27.18,29.19-54,16.65-59,23,11.57,8.33,11.57,8.33-38.34,15.84-43,19c-1.54,1-28.15,4.36-30.9,11.88,0,0-50.31,8.23-51,14.54s25.15,4.46,25.15,4.46-1.62,7.19,3.4,7.6a85,85,0,0,0,10.43.08s13.18,14,23.94,10.93c0,0,5.82,11.81,16.57,8.74,0,0,10.19,9.95,21.52,2.43,0,0,4.28,8.57,11.4,7.77S164.26,509,164.26,509s-3.32,12,7.68,11.9S189.09,508,189.09,508s7.68,7.6,13.91,5.83,9.14-8.74,9.14-8.74,7.36,2.19,18.12-5.17c0,0,18-3.31,22.65-15,0,0,16.26-5.26,22.41-18,0,0,11.89-3.4,14.48-15.77,0,0,12-13.83,17.8-23.45,0,0,4.12,20.87,8.25,20.3s9.95-5.9,9.95-5.9,9.05,6,13.34,6,6.39-5.5,6.39-5.5,15.21,6.07,21.76,5.42,12.21-10.83,12.21-10.83,5.91,1.38,15.78-6.95,12.13-17.55,12.13-17.55a12.29,12.29,0,0,0,9.47-7.6s11.4-.81,9.3-12.45c0,0,9.55-9.46,4-18.28,0,0,6.56-13.51-.8-20,0,0,2.18-7.36-5-13.26,0,0,4.45-16.58-11.24-20.06,0,0,6.63-11.08,15.21-15.37s11-21.51,11-21.51,8.9-7.44,8.34-15.85c0,0,8.17.73,11.08-6.22a14.87,14.87,0,0,0-.56-12.7s7.6-7.68,7.44-12.54S462.54,226,462.54,226s6.88-3.8,7.93-10.84-3.88-9.3-3.88-9.3,6.55-4.93,5.67-10.19-6.88-4.77-6.88-4.77a10.56,10.56,0,0,0,2-7.93c-.73-4.69-8.74-4.86-8.74-4.86s10.92-6.79,13.51-14.87-1-16.26-1-16.26,9.14-4.45,7.6-12-9.05-6-9.05-6,5-8.16,1.62-15.77-7-2.91-7-2.91S471.8,86.85,468,84.26s-11.25,14.23-19,21.34-17,34.86-17,34.86-13.19,20.29-13.43,25.88S407.64,186,407.64,186s-1.62-14.24-5.58-13.11-10.12,31.06-11.9,37.69,7.36-10.68.65,2.26-25.49,24.42-35.84,31-26,31.3-33.17,38.25-26.05,7.43-26.05,7.43S287,288.81,282,284.3Z"/></clipPath></defs><title>Asset 1</title><g class="cls-2"><g id="Layer_2" data-name="Layer 2"><g id="_1" data-name="1"><g class="cls-3"><ellipse class="cls-4" cx="268.41" cy="495.21" rx="83.48" ry="67.78" transform="translate(-294.48 474.41) rotate(-59.43)"/><ellipse class="cls-4" cx="302.36" cy="501.7" rx="66.79" ry="54.22" transform="translate(-283.38 506.84) rotate(-59.43)"/><ellipse class="cls-4" cx="307.35" cy="506.58" rx="81.81" ry="66.42" transform="matrix(0.51, -0.86, 0.86, 0.51, -285.14, 513.53)"/><ellipse class="cls-4" cx="261.5" cy="541.55" rx="90.16" ry="73.2" transform="translate(-337.77 491.23) rotate(-59.43)"/><ellipse class="cls-4" cx="253.43" cy="565.87" rx="105.19" ry="85.4" transform="translate(-362.68 496.23) rotate(-59.43)"/><ellipse class="cls-4" cx="309.67" cy="550.62" rx="83.48" ry="67.78" transform="translate(-321.91 537.17) rotate(-59.43)"/><ellipse class="cls-4" cx="327.09" cy="489.16" rx="108.53" ry="88.11" transform="translate(-260.44 521.96) rotate(-59.43)"/><ellipse class="cls-4" cx="353.84" cy="454.54" rx="101.85" ry="82.69" transform="translate(-217.49 527.98) rotate(-59.43)"/><ellipse class="cls-4" cx="374.96" cy="432.11" rx="91.83" ry="74.56" transform="translate(-187.8 535.15) rotate(-59.43)"/><ellipse class="cls-5" cx="217.09" cy="294.24" rx="121.88" ry="98.96" transform="translate(-146.67 331.49) rotate(-59.43)"/><ellipse class="cls-5" cx="208.5" cy="279.47" rx="111.87" ry="90.82" transform="translate(-138.17 316.83) rotate(-59.43)"/><ellipse class="cls-4" cx="200.82" cy="441.71" rx="111.87" ry="90.82" transform="translate(-281.63 389.94) rotate(-59.43)"/><ellipse class="cls-4" cx="174.61" cy="472.76" rx="121.88" ry="98.96" transform="translate(-321.24 382.62) rotate(-59.43)"/><ellipse class="cls-5" cx="254.64" cy="353.28" rx="136.91" ry="111.16" transform="translate(-179.04 392.82) rotate(-59.43)"/><ellipse class="cls-5" cx="258.06" cy="283.54" rx="131.9" ry="107.09" transform="matrix(0.51, -0.86, 0.86, 0.51, -117.32, 361.5)"/><ellipse class="cls-6" cx="315.79" cy="271.1" rx="148.6" ry="120.65" transform="translate(-78.25 405.09) rotate(-59.43)"/><ellipse class="cls-6" cx="370.73" cy="266.72" rx="129.81" ry="105.4" transform="translate(-47.48 450.24) rotate(-59.43)"/><ellipse class="cls-6" cx="419.04" cy="264.23" rx="101.85" ry="82.69" transform="translate(-21.6 490.61) rotate(-59.43)"/><ellipse class="cls-6" cx="449.92" cy="278.59" rx="111.87" ry="90.82" transform="translate(-18.8 524.25) rotate(-59.43)"/><ellipse class="cls-6" cx="483.13" cy="273.01" rx="128.56" ry="104.38" transform="translate(2.33 550.1) rotate(-59.43)"/><ellipse class="cls-6" cx="468.91" cy="291.75" rx="146.93" ry="119.29" transform="translate(-20.79 547.07) rotate(-59.43)"/><ellipse class="cls-5" cx="433.78" cy="305.91" rx="83.48" ry="67.78" transform="translate(-50.24 523.78) rotate(-59.43)"/><ellipse class="cls-4" cx="184.89" cy="505.99" rx="83.48" ry="67.78" transform="translate(-344.8 407.8) rotate(-59.43)"/><ellipse class="cls-4" cx="288.59" cy="423.75" rx="83.48" ry="67.78" transform="translate(-223.04 456.67) rotate(-59.43)"/><ellipse class="cls-6" cx="315.05" cy="237.7" rx="140.25" ry="113.87" transform="translate(-49.85 388.05) rotate(-59.43)"/><ellipse class="cls-6" cx="426.92" cy="160.29" rx="131.9" ry="107.09" transform="translate(71.76 446.32) rotate(-59.43)"/><ellipse class="cls-6" cx="356.67" cy="145.94" rx="125.22" ry="101.67" transform="translate(49.6 378.79) rotate(-59.43)"/><ellipse class="cls-6" cx="303.93" cy="141.93" rx="148.6" ry="120.65" transform="matrix(0.51, -0.86, 0.86, 0.51, 27.14, 331.41)"/><ellipse class="cls-6" cx="257.34" cy="164.82" rx="115.2" ry="93.54" transform="translate(-15.46 302.55) rotate(-59.43)"/><ellipse class="cls-4" cx="99.6" cy="383.85" rx="115.2" ry="93.54" transform="translate(-281.54 274.36) rotate(-59.43)"/><ellipse class="cls-4" cx="111.78" cy="493.82" rx="115.2" ry="93.54" transform="matrix(0.51, -0.86, 0.86, 0.51, -370.25, 338.88)"/><ellipse class="cls-6" cx="347.55" cy="113.4" rx="103.52" ry="84.05" transform="translate(73.14 354.95) rotate(-59.43)"/><ellipse class="cls-6" cx="455.66" cy="122.97" rx="60.11" ry="48.8" transform="translate(118.01 452.72) rotate(-59.43)"/><ellipse class="cls-6" cx="493.23" cy="205.28" rx="83.48" ry="67.78" transform="translate(65.61 525.52) rotate(-59.43)"/><ellipse class="cls-5" cx="348.03" cy="344.45" rx="60.11" ry="48.8" transform="translate(-125.56 468.89) rotate(-59.43)"/><ellipse class="cls-4" cx="299.06" cy="579.25" rx="60.11" ry="48.8" transform="translate(-351.78 542.09) rotate(-59.43)"/><ellipse class="cls-4" cx="379.95" cy="437" rx="30.05" ry="24.4" transform="translate(-189.56 541.84) rotate(-59.43)"/></g></g></g></g></svg>