<svg xmlns="http://www.w3.org/2000/svg" viewBox="0 0 985.24 733.31"><defs><style>.cls-1,.cls-3{fill:none;}.cls-1,.cls-2,.cls-3{stroke:#fff;stroke-miterlimit:10;}.cls-1{stroke-width:25px;}.cls-2{fill:#fff;}.cls-3{stroke-width:23px;}</style></defs><title>MasterMovies_White</title><g id="Layer_2" data-name="Layer 2"><g id="Mountain_2" data-name="Mountain 2"><polygon class="cls-1" points="585.26 331.07 657.58 210.25 729.63 330.62 761.65 384.12 963.17 720.77 747.42 720.37 582.99 403.31 563.97 366.63 585.26 331.07"/><polyline class="cls-1" points="617.81 359.52 657.19 325.12 696.56 359.52"/><line class="cls-1" x1="696.56" y1="359.52" x2="729.63" y2="330.62"/><line class="cls-1" x1="585.26" y1="331.07" x2="617.81" y2="359.52"/><rect class="cls-2" x="688.56" y="360.59" width="13.81" height="12.57" transform="translate(411.08 -366.2) rotate(40.98)"/><rect class="cls-2" x="694.88" y="360.71" width="8.61" height="14.7" transform="translate(512.46 -399.71) rotate(48.57)"/><rect class="cls-2" x="609.68" y="360.32" width="14.09" height="12.78" transform="translate(391.67 -314.59) rotate(40.98)"/><rect class="cls-2" x="616.1" y="360.99" width="8.61" height="14.37" transform="translate(485.9 -340.6) rotate(48.57)"/></g><g id="Mountain_1" data-name="Mountain 1"><polygon class="cls-3" points="302.74 179.32 383.57 24.81 464.08 178.71 502.29 251.74 748.15 721.77 18.99 721.77 264.54 252.37 302.74 179.32"/><polyline class="cls-3" points="336.14 212.72 383.11 165.74 430.09 212.72"/><line class="cls-3" x1="430.09" y1="212.72" x2="464.08" y2="178.71"/><line class="cls-3" x1="302.74" y1="179.32" x2="336.13" y2="212.72"/><rect class="cls-2" x="330.32" y="214.95" width="11.63" height="11.63" transform="translate(254.55 -173.02) rotate(45)"/><rect class="cls-2" x="424.27" y="214.95" width="11.63" height="11.63" transform="translate(282.07 -239.45) rotate(45)"/></g></g></svg>